<?xml version="1.0" standalone="no"?>
<!DOCTYPE svg PUBLIC "-//W3C//DTD SVG 20010904//EN"
 "http://www.w3.org/TR/2001/REC-SVG-20010904/DTD/svg10.dtd">
<svg version="1.0" xmlns="http://www.w3.org/2000/svg"
 width="500.000000pt" height="500.000000pt" viewBox="0 0 500.000000 500.000000"
 preserveAspectRatio="xMidYMid meet">
<metadata>
Created by potrace 1.14, written by Peter Selinger 2001-2017
</metadata>
<g transform="translate(0.000000,500.000000) scale(0.100000,-0.100000)"
fill="#000000" stroke="none">
<path d="M2206 4874 c-55 -7 -122 -18 -150 -24 -28 -6 -60 -13 -71 -16 -38 -7
-180 -52 -248 -78 -132 -50 -365 -177 -450 -246 -237 -191 -383 -353 -503
-557 -218 -369 -306 -753 -271 -1178 30 -359 190 -749 426 -1039 272 -336 680
-585 1091 -670 118 -24 131 -26 205 -32 73 -7 89 1 20 10 -66 8 -249 64 -360
110 -523 216 -928 654 -1100 1186 -20 63 -39 124 -41 135 -48 236 -48 238 -48
460 0 170 4 243 18 320 38 211 105 408 197 583 47 88 151 252 181 283 7 8 29
34 49 59 155 192 390 376 631 493 181 89 431 164 603 182 33 4 74 8 90 10 17
2 63 4 104 4 41 1 71 4 68 8 -12 12 -341 10 -441 -3z"/>
<path d="M2565 4739 c-626 -41 -1177 -398 -1478 -959 -87 -162 -162 -382 -183
-535 -3 -22 -7 -46 -10 -53 -7 -22 -17 -171 -17 -252 0 -223 38 -428 119 -655
37 -102 202 -405 221 -405 2 0 -15 37 -38 81 -60 120 -102 231 -133 347 -49
185 -61 282 -61 482 0 180 7 249 39 390 14 63 17 80 15 82 -1 2 3 13 10 26 7
13 14 33 16 44 8 41 59 165 107 262 169 340 442 618 778 793 207 107 395 165
655 199 60 8 301 8 366 1 475 -56 880 -270 1197 -631 62 -72 51 -50 -28 53
-135 176 -245 284 -414 405 -125 90 -414 236 -465 236 -9 0 -22 5 -29 12 -7 7
-12 9 -12 5 0 -4 -8 -3 -19 2 -10 6 -33 13 -52 16 -19 3 -50 10 -69 15 -135
35 -335 50 -515 39z"/>
<path d="M615 4032 c-222 -314 -351 -655 -392 -1031 -10 -88 -10 -314 0 -425
25 -285 132 -605 291 -871 340 -570 901 -932 1581 -1021 91 -11 368 -11 470 2
258 31 480 97 705 208 219 109 383 227 555 400 94 94 224 246 211 246 -2 0
-46 -41 -97 -91 -264 -255 -574 -434 -916 -528 -95 -27 -177 -43 -328 -66 -70
-11 -347 -13 -435 -4 -687 73 -1273 444 -1620 1027 -148 247 -259 575 -287
847 -9 94 -10 353 -1 445 30 300 133 615 280 858 47 77 37 80 -17 4z"/>
<path d="M4659 3345 c-3 -12 -6 -22 -13 -55 -7 -32 -19 -62 -49 -130 -48 -107
-148 -214 -360 -384 -208 -168 -359 -347 -416 -494 -77 -203 -53 -430 72 -665
62 -118 63 -118 128 -49 105 111 189 229 249 351 49 99 92 199 96 226 1 6 11
44 23 85 12 41 22 86 22 100 1 17 3 19 6 7 15 -56 -78 -370 -153 -520 -47 -94
-136 -235 -173 -274 -12 -12 -21 -24 -21 -27 0 -9 61 13 142 53 337 163 528
433 583 821 12 89 14 396 2 446 -3 12 -8 45 -12 75 -9 75 -41 218 -71 319 -14
47 -27 93 -30 103 -5 15 -22 24 -25 12z"/>
<path d="M3130 2423 c-26 -69 -66 -233 -79 -323 -14 -95 -6 -323 13 -395 55
-202 189 -357 381 -438 33 -14 61 -24 63 -23 1 2 -14 27 -34 57 -73 109 -127
234 -159 371 -17 76 -3 64 20 -17 24 -84 67 -175 119 -253 48 -70 133 -169
139 -162 13 17 78 131 88 155 45 115 58 250 33 338 -36 122 -136 246 -314 387
-134 106 -219 222 -233 318 -3 19 -8 36 -10 39 -3 2 -15 -22 -27 -54z m177
-675 c-3 -7 -5 -2 -5 12 0 14 2 19 5 13 2 -7 2 -19 0 -25z"/>
<path d="M1965 517 c-14 -11 -15 -16 -5 -22 9 -5 11 -4 6 3 -4 7 -3 12 2 12
14 0 21 -11 15 -26 -5 -13 -9 -12 -29 1 -14 9 -29 13 -34 10 -6 -3 -10 -1 -10
4 0 6 -5 11 -11 11 -8 0 -8 -5 1 -15 7 -8 9 -15 5 -15 -4 0 -3 -6 3 -13 7 -8
6 -18 -5 -32 -11 -14 -14 -15 -10 -4 3 9 0 22 -6 29 -9 10 -9 11 1 5 12 -6 12
-3 2 16 -18 34 -24 38 -15 9 7 -23 6 -24 -10 -10 -9 8 -27 15 -38 17 -18 2
-19 1 -7 -7 14 -9 12 -11 -20 -14 -8 0 -14 -7 -12 -14 1 -8 -3 -12 -10 -9 -7
2 -12 11 -10 19 1 9 -4 21 -13 28 -12 10 -16 9 -21 -4 -3 -9 -11 -13 -18 -9
-6 4 -4 -1 3 -11 13 -16 13 -17 -5 -14 -10 1 -25 10 -32 18 -8 8 -11 9 -7 3 3
-7 1 -13 -4 -13 -6 0 -11 -4 -11 -10 0 -5 8 -7 18 -4 13 5 14 4 3 -4 -9 -7
-10 -12 -2 -16 6 -4 11 -3 11 2 0 5 7 9 15 10 8 1 22 3 30 4 8 1 11 6 8 11 -3
6 -1 7 6 3 6 -4 9 -12 6 -17 -4 -5 2 -9 12 -10 11 0 13 -3 5 -6 -7 -3 -20 1
-29 9 -14 11 -16 11 -11 -3 5 -12 -1 -15 -26 -14 -17 1 -37 -2 -43 -8 -7 -5
-20 -6 -29 -3 -13 5 -15 1 -12 -19 3 -13 1 -22 -3 -19 -5 3 -9 13 -9 23 0 23
-20 39 -42 36 -10 -2 -18 1 -18 6 0 10 28 8 47 -4 6 -4 14 -1 16 5 4 10 6 9 6
-1 1 -11 4 -11 19 0 16 13 16 13 2 -5 -14 -18 -13 -19 3 -13 10 4 21 7 24 7 3
0 0 6 -7 14 -6 8 -19 12 -28 9 -11 -3 -8 3 8 17 14 12 19 19 12 15 -7 -4 -21
-1 -30 7 -15 11 -16 11 -4 -3 10 -13 10 -19 -2 -29 -9 -6 -21 -8 -28 -4 -17
11 -48 13 -42 3 2 -4 0 -10 -6 -14 -5 -3 -10 -2 -10 4 0 5 -12 8 -26 7 -29 -3
-51 -30 -34 -41 6 -4 8 -11 5 -16 -4 -5 -1 -9 5 -9 6 0 8 13 6 33 -3 17 -3 26
0 19 5 -10 9 -10 21 -1 11 10 13 10 11 -1 -2 -8 8 -13 27 -14 36 -3 55 -13 55
-29 0 -8 -4 -7 -9 2 -8 12 -12 12 -24 2 -10 -8 -17 -9 -22 -1 -3 5 -11 10 -17
10 -6 0 -3 -9 7 -20 10 -11 13 -20 7 -20 -7 0 -12 6 -12 13 0 6 -9 -1 -20 -18
-11 -16 -20 -26 -20 -22 0 4 7 18 16 31 9 15 11 27 5 30 -5 4 -12 -3 -16 -14
-7 -21 -25 -28 -25 -9 0 5 -5 7 -10 4 -8 -5 -7 -11 0 -20 18 -21 3 -37 -22
-24 -16 9 -24 8 -36 -5 -9 -8 -12 -19 -8 -23 4 -4 11 -1 16 7 5 8 11 12 14 9
3 -3 -3 -15 -14 -27 -11 -11 -16 -24 -10 -27 5 -3 17 6 26 20 9 14 19 23 22
20 3 -2 12 1 21 8 14 11 14 10 2 -5 -12 -16 -11 -18 10 -19 18 -1 19 -3 6 -6
-10 -3 -25 1 -34 9 -14 11 -16 11 -12 -1 3 -8 12 -18 20 -21 8 -4 25 -13 39
-20 17 -9 25 -10 28 -1 2 6 8 11 13 11 5 0 4 -9 -3 -19 -9 -15 -15 -17 -25 -9
-8 6 -16 8 -19 5 -3 -3 3 -11 14 -18 11 -7 18 -19 15 -26 -3 -7 0 -13 7 -13 6
0 8 5 5 10 -3 6 -1 10 4 10 6 0 10 3 10 7 -4 25 2 35 14 24 10 -8 17 -7 26 2
10 9 11 8 6 -5 -10 -26 4 -22 16 5 9 20 9 19 4 -6 -5 -25 -4 -27 14 -15 15 9
17 15 9 25 -17 21 -5 22 14 2 16 -17 16 -18 -2 -24 -12 -4 -17 -12 -14 -23 5
-14 4 -15 -5 -2 -8 11 -11 12 -11 2 0 -10 -4 -9 -16 2 -8 9 -20 14 -25 11 -5
-4 -9 -1 -9 4 0 6 -4 11 -9 11 -5 0 -8 -11 -6 -25 2 -27 15 -48 15 -26 0 7 4
9 10 6 6 -4 7 1 3 12 -6 17 -5 17 15 -1 12 -11 22 -15 22 -10 0 5 5 2 10 -6 7
-12 12 -12 22 -2 20 20 32 13 13 -8 -10 -11 -13 -20 -8 -20 10 0 23 21 29 48
3 15 -8 16 -24 0 -7 -7 -12 -8 -12 -2 0 5 9 15 19 21 16 10 20 9 25 -3 3 -9
11 -12 17 -8 8 4 9 3 5 -4 -5 -8 0 -12 14 -12 16 0 20 -5 17 -22 -2 -13 -2
-17 1 -9 3 11 8 9 22 -9 13 -17 19 -20 25 -10 5 9 4 11 -3 6 -7 -4 -12 -3 -12
3 0 15 18 23 25 11 10 -16 28 -12 21 5 -9 23 12 18 25 -7 11 -20 13 -20 24 -5
6 9 16 13 20 9 5 -4 5 -1 1 6 -4 6 -3 12 3 12 5 0 11 -6 14 -12 2 -8 10 -1 18
15 12 27 13 28 21 8 4 -12 13 -21 19 -21 8 0 8 4 -1 15 -11 13 -10 14 4 9 10
-4 15 -12 13 -19 -3 -6 5 -17 16 -25 20 -12 21 -12 8 3 -12 15 -11 17 3 17 16
0 20 -11 16 -40 -1 -8 0 -13 2 -10 2 3 12 16 23 30 11 14 13 20 5 14 -11 -8
-21 -5 -38 12 -18 17 -20 24 -10 30 7 4 10 4 6 -1 -13 -14 31 -38 46 -26 7 6
16 8 19 4 4 -3 7 0 7 8 0 11 2 11 10 -1 5 -8 10 -11 10 -6 0 5 7 3 16 -5 13
-11 15 -9 10 17 l-6 29 11 -28 c11 -27 35 -33 52 -12 6 6 10 6 14 -3 2 -6 9
-10 14 -7 5 4 6 -1 2 -10 -3 -9 -9 -13 -12 -8 -3 5 -20 9 -37 9 -26 -1 -31 -5
-28 -20 2 -10 6 -21 10 -25 4 -3 5 2 1 11 -5 13 0 16 26 14 18 -2 31 -8 29
-15 -1 -8 4 -8 18 1 22 14 28 33 8 23 -7 -4 -5 0 4 8 10 8 14 18 10 23 -4 4 2
2 12 -6 18 -14 18 -13 12 10 l-7 25 15 -25 c9 -14 15 -19 16 -11 0 8 2 12 5 9
3 -3 2 -13 -1 -22 -5 -14 -9 -15 -15 -4 -7 10 -9 10 -9 -2 0 -13 -1 -13 -11 0
-9 13 -10 13 -6 0 2 -8 10 -15 18 -15 8 -1 13 -7 11 -15 -2 -10 0 -11 10 -3 7
6 16 12 21 12 10 1 10 11 1 19 -4 4 -4 1 1 -7 6 -10 4 -12 -4 -6 -9 5 -10 10
-2 18 7 7 7 17 -1 31 -6 12 -7 18 -3 14 5 -4 15 -2 24 5 14 10 14 10 3 -5 -11
-13 -11 -20 0 -37 7 -12 19 -21 26 -21 7 0 10 -5 6 -12 -4 -7 -3 -8 4 -4 18
11 15 39 -2 33 -10 -4 -13 -1 -9 9 3 8 8 12 11 10 3 -3 12 0 21 7 14 10 14 10
3 -5 -9 -11 -10 -18 -2 -23 8 -5 6 -15 -5 -33 -16 -26 -16 -27 2 -7 25 27 42
29 59 8 12 -15 13 -16 8 -1 -6 17 10 19 33 5 6 -4 15 -3 18 3 5 8 11 7 21 -1
8 -6 17 -9 21 -5 3 3 0 6 -7 6 -9 0 -8 5 4 19 17 18 17 20 -1 30 -17 11 -17
11 2 9 12 -2 19 2 17 10 -1 8 2 11 8 7 8 -5 8 -11 1 -19 -6 -7 -8 -16 -4 -19
3 -4 11 0 17 9 10 13 12 13 12 -5 0 -11 -5 -17 -10 -14 -5 4 -6 0 -1 -8 7 -12
6 -12 -7 -1 -11 9 -18 10 -23 2 -3 -5 -5 -10 -3 -11 31 -7 48 -7 49 1 1 6 2
16 3 23 1 6 8 11 15 9 9 -2 11 3 7 15 -4 13 -1 11 12 -5 14 -18 20 -20 31 -10
11 10 12 10 7 1 -4 -8 -2 -13 5 -13 7 0 5 -8 -6 -20 -10 -11 -15 -23 -12 -27
4 -3 7 -1 7 6 0 7 5 9 10 6 6 -4 10 -3 9 2 -1 4 1 16 5 25 4 9 2 27 -4 40 -9
19 -9 21 2 8 7 -8 18 -16 23 -17 6 -1 19 -5 30 -9 17 -6 18 -5 8 7 -8 10 -9
19 -1 29 8 13 9 12 5 -2 -3 -9 2 -22 10 -30 15 -11 16 -11 10 5 -4 10 -3 16 2
12 5 -3 11 1 14 7 2 7 4 1 4 -13 0 -18 -5 -26 -16 -26 -42 0 -45 -2 -28 -21
10 -10 14 -22 10 -27 -5 -4 -2 -5 5 0 10 5 11 10 3 18 -16 16 -13 31 3 18 10
-8 16 -9 21 -1 3 6 11 7 17 4 6 -4 5 -10 -3 -15 -8 -5 -9 -9 -3 -9 6 0 17 7
24 15 7 8 17 15 23 15 7 0 7 -4 -1 -12 -7 -7 -12 -16 -12 -22 0 -5 7 -1 16 10
11 13 14 14 11 3 -3 -9 1 -16 9 -16 12 0 12 4 -1 24 -9 13 -11 23 -6 23 6 0 8
7 5 15 -4 8 -10 12 -15 9 -5 -3 -6 -10 -3 -16 4 -7 2 -8 -4 -4 -7 4 -12 3 -12
-2 0 -19 -26 -7 -27 12 -1 12 1 15 4 9 3 -7 9 -13 14 -13 6 0 7 6 3 13 -4 6
-4 9 1 5 4 -4 14 -3 21 3 10 8 15 8 19 -3 3 -7 15 -14 25 -15 11 -1 18 2 15 7
-3 5 0 12 6 16 7 4 9 3 5 -4 -3 -6 -2 -13 4 -17 5 -3 10 1 10 9 0 9 4 16 8 16
4 0 8 -8 8 -18 0 -15 -7 -19 -34 -17 -40 2 -45 -4 -25 -30 14 -18 15 -18 9 -1
-4 13 -2 17 8 13 7 -3 18 -1 24 5 6 6 12 6 16 -1 4 -6 2 -11 -3 -11 -6 0 -11
-4 -11 -8 0 -5 7 -9 15 -9 8 0 12 4 10 8 -8 13 22 18 35 6 10 -9 11 -9 6 0 -3
6 -2 14 3 18 6 3 8 11 5 18 -2 7 3 21 12 32 8 11 13 15 10 8 -4 -6 2 -16 11
-22 10 -5 14 -13 10 -17 -5 -5 -12 -2 -17 6 -5 8 -13 11 -17 6 -4 -5 -2 -11 5
-13 6 -3 9 -10 5 -16 -12 -19 -12 -36 -1 -44 6 -3 8 -1 4 5 -3 6 -2 13 4 17 6
4 7 11 4 17 -5 7 -2 9 8 5 9 -3 20 -1 26 5 8 8 16 7 28 -3 15 -12 17 -12 9 0
-6 11 -4 13 7 8 9 -3 21 0 28 6 10 9 12 9 7 -4 -3 -9 0 -16 9 -16 17 0 18 13
2 24 -19 12 -82 11 -91 -1 -6 -7 -7 -4 -3 6 3 10 -2 19 -12 22 -12 3 -11 4 3
3 29 -3 46 33 26 56 -13 16 -13 17 1 12 20 -8 33 -38 19 -43 -6 -2 -11 -11
-11 -19 0 -14 2 -15 18 -1 9 8 24 16 32 17 8 1 27 2 42 4 14 1 38 13 52 26 24
22 24 25 8 37 -9 7 -12 14 -7 15 6 0 -1 5 -15 10 l-25 8 25 -2 c14 -1 23 -6
22 -11 -2 -5 2 -12 9 -16 14 -9 67 35 56 46 -4 4 -14 -1 -21 -12 -14 -18 -15
-18 -34 0 -12 10 -26 15 -34 11 -10 -6 -10 -5 -1 5 10 11 16 11 31 -3 20 -19
32 -22 32 -9 0 5 -11 14 -24 22 -19 10 -24 19 -21 44 2 17 4 31 5 31 1 0 3 7
5 15 1 10 -5 15 -20 15 -13 0 -21 -3 -18 -7 2 -5 12 -8 21 -8 14 0 13 -4 -6
-22 -18 -19 -24 -20 -34 -9 -9 9 -9 12 -1 7 14 -8 28 10 14 18 -5 4 -16 0 -24
-9 -13 -13 -17 -13 -28 1 -11 14 -14 13 -25 -8 -9 -17 -9 -25 -1 -30 19 -12
32 -9 19 4 -15 15 -16 28 -2 28 5 0 9 -6 7 -12 -1 -7 4 -12 11 -11 6 2 12 -1
12 -7 0 -5 10 -9 23 -7 13 1 22 -3 22 -12 0 -19 -29 -35 -50 -27 -14 5 -15 9
-5 21 8 10 9 15 2 15 -6 0 -16 -8 -21 -17 -10 -17 -10 -17 -11 0 0 11 -5 17
-12 14 -7 -2 -21 2 -30 11 -20 17 -25 3 -6 -16 9 -9 9 -12 0 -12 -7 0 -12 5
-12 11 0 8 -6 7 -17 -2 -16 -13 -16 -13 0 11 18 26 22 45 8 36 -5 -3 -14 1
-21 9 -19 23 6 19 30 -5 12 -12 20 -15 20 -7 0 8 4 7 10 -3 5 -8 10 -10 10 -4
0 5 -5 15 -12 22 -6 6 -8 15 -4 19 4 4 11 1 16 -7 6 -9 10 -10 10 -3 0 20 -22
27 -34 10 -9 -11 -17 -13 -29 -5 -13 7 -23 6 -32 -2 -12 -10 -17 -8 -24 11 -7
18 -10 19 -10 7 -1 -10 -6 -18 -12 -18 -5 0 -7 6 -3 13 5 7 0 6 -11 -3 -21
-17 -24 -17 -36 2 -7 10 -9 10 -9 1 0 -7 -8 -13 -17 -13 -15 0 -16 2 -3 10 13
8 12 10 -4 10 -12 0 -16 -5 -13 -14 7 -18 -23 -30 -37 -16 -8 8 -7 10 4 7 8
-2 12 -2 8 0 -5 3 -8 11 -8 18 0 7 -7 16 -16 19 -24 9 -31 7 -11 -5 9 -5 17
-14 17 -19 0 -13 -22 -8 -35 6 -13 15 -48 27 -40 14 3 -6 13 -10 21 -10 8 0
14 -4 14 -10 0 -5 -8 -7 -17 -4 -14 5 -15 4 -4 -4 8 -6 22 -9 32 -7 10 2 20
-3 23 -10 3 -9 0 -12 -10 -8 -10 3 -12 0 -8 -10 3 -8 1 -18 -5 -22 -7 -4 -8 0
-4 11 5 13 3 15 -7 9 -8 -5 -11 -4 -6 3 3 6 -3 16 -14 22 -19 10 -25 4 -21
-22 0 -4 -7 -4 -16 -1 -11 4 -13 8 -5 11 16 5 16 23 0 20 -7 -2 -21 -11 -32
-20 -22 -20 -38 -15 -29 10 6 14 4 15 -9 5 -8 -7 -18 -9 -23 -5 -4 4 -5 -4 -1
-18 3 -14 3 -19 0 -12 -3 6 -11 9 -16 6 -7 -4 -8 -2 -4 4 4 7 4 18 -1 25 -4 6
-8 15 -8 20 0 4 -4 7 -9 6 -5 0 -12 5 -16 11 -5 9 -9 9 -14 1 -6 -10 6 -15 27
-12 4 1 2 -8 -5 -18 -9 -15 -15 -17 -25 -9 -8 6 -13 7 -13 0 0 -5 6 -15 14
-21 14 -12 16 -35 3 -47 -3 -4 -5 2 -3 12 2 11 -5 30 -16 44 -16 20 -21 21
-29 9 -5 -7 -9 -9 -9 -4 0 6 -9 11 -20 12 -13 1 -18 -2 -13 -10 3 -7 -3 -4
-14 6 -20 17 -21 17 -27 0 -4 -10 -10 -13 -14 -8 -10 14 -64 17 -56 3 4 -6 3
-8 -4 -4 -6 3 -18 -1 -26 -10 -9 -8 -16 -10 -16 -4 0 6 7 13 15 16 8 4 12 10
9 16 -3 5 -14 2 -25 -8 -10 -9 -19 -13 -19 -8 0 5 -5 2 -10 -6 -5 -8 -10 -10
-10 -4 0 6 12 21 27 35 14 13 23 19 20 13 -4 -7 9 -10 36 -9 23 1 48 -3 56 -9
11 -8 13 -8 8 0 -7 12 42 12 61 0 14 -9 22 18 10 35 -8 11 -9 10 -4 -3 3 -12
0 -18 -10 -18 -9 0 -12 5 -8 13 5 9 4 9 -7 -1 -11 -10 -17 -8 -31 10 -16 20
-17 21 -12 3 4 -11 4 -17 -1 -13 -4 4 -15 2 -23 -5 -13 -10 -15 -9 -9 5 3 10
2 20 -4 23 -5 4 -9 3 -8 -2 4 -22 -3 -32 -21 -30 -11 1 -20 5 -20 10 0 4 -8 7
-17 5 -11 -2 -17 2 -15 10 1 8 -2 11 -8 7 -8 -5 -7 -11 1 -21 9 -11 8 -14 -3
-14 -8 0 -20 10 -27 23 -11 22 -11 22 -5 -3 6 -21 5 -23 -8 -12 -13 10 -17 10
-21 -2 -4 -9 -1 -18 5 -22 7 -4 8 -3 4 4 -4 7 -2 12 4 12 7 0 9 -7 6 -16 -3
-9 -6 -17 -6 -19 0 -2 -14 10 -31 26 -17 16 -36 26 -42 22 -6 -4 -8 0 -4 11 4
11 3 15 -4 11 -6 -4 -8 -13 -5 -20 2 -7 -1 -18 -7 -24 -8 -8 -6 -11 7 -11 9 0
15 4 11 9 -3 5 0 13 6 17 8 5 9 3 4 -6 -5 -8 -4 -11 2 -7 6 4 17 -1 25 -11 25
-29 29 -40 17 -48 -7 -4 -9 -3 -6 3 3 5 -1 19 -9 31 -14 21 -16 21 -39 6 -17
-11 -25 -12 -25 -5 0 7 -5 9 -10 6 -6 -4 -7 -11 -4 -17 4 -6 -2 -6 -15 1 -26
15 -45 47 -31 56 5 3 10 12 10 18 0 7 -5 4 -11 -6 -6 -9 -14 -15 -19 -12 -4 3
-11 -3 -15 -13 -6 -16 -7 -16 -21 2 -8 11 -14 14 -14 7 0 -7 -4 -10 -9 -6 -5
3 -13 0 -16 -5 -5 -8 -13 -6 -26 6 -10 9 -16 21 -13 25 7 13 1 11 -21 -4z
m-205 -36 c0 -4 -6 -8 -14 -8 -8 0 -12 6 -9 14 5 13 23 9 23 -6z m110 -21 c9
-16 8 -18 -6 -13 -12 4 -15 3 -10 -5 4 -7 2 -12 -3 -12 -6 0 -11 5 -11 11 0 5
-3 8 -8 5 -4 -2 -16 3 -27 11 -15 12 -16 14 -3 10 9 -3 22 1 28 8 14 17 25 12
40 -15z m85 14 c23 -15 25 -15 31 0 5 12 10 14 19 6 8 -7 15 -7 19 -1 7 10 24
10 43 -2 6 -4 14 -3 18 3 9 15 28 12 22 -4 -3 -8 1 -17 9 -20 8 -3 14 -10 14
-16 0 -6 -10 -2 -22 10 -15 13 -25 17 -32 10 -5 -5 -15 -10 -20 -10 -6 0 -4 5
4 10 12 8 9 10 -12 10 -15 0 -33 -8 -40 -18 -7 -10 -20 -22 -28 -27 -8 -4 -4
4 9 18 14 15 19 27 13 27 -6 0 -13 -4 -17 -10 -3 -5 -13 -6 -22 -3 -11 4 -14
3 -9 -5 5 -8 2 -10 -9 -5 -13 5 -14 7 -3 14 9 6 6 9 -10 9 -13 0 -20 4 -17 10
8 13 11 13 40 -6z m346 -11 c-12 -20 -14 -14 -5 12 4 9 9 14 11 11 3 -2 0 -13
-6 -23z m729 -3 c3 -1 8 -2 12 -2 3 1 12 -5 19 -14 9 -11 9 -18 1 -26 -9 -9
-12 -9 -12 -1 0 11 -45 11 -57 -1 -3 -3 -12 2 -20 12 -14 16 -14 16 -8 -3 4
-14 3 -17 -5 -9 -6 6 -12 19 -14 30 -4 18 1 20 37 18 23 -1 44 -3 47 -4z
m-804 -19 c0 -14 -4 -17 -12 -11 -6 6 -13 9 -15 7 -2 -1 2 4 10 11 8 6 15 12
16 12 0 0 1 -9 1 -19z m703 -3 c-1 -18 -2 -19 -6 -5 -2 9 -9 14 -15 11 -7 -4
-8 -2 -4 4 12 20 26 13 25 -10z m-1124 2 c3 -5 1 -10 -4 -10 -6 0 -11 5 -11
10 0 6 2 10 4 10 3 0 8 -4 11 -10z m235 6 c0 -2 -7 -7 -16 -10 -8 -3 -12 -2
-9 4 6 10 25 14 25 6z m50 -6 c0 -5 -5 -10 -11 -10 -5 0 -7 5 -4 10 3 6 8 10
11 10 2 0 4 -4 4 -10z m347 -2 c11 -19 13 -39 2 -32 -5 3 -7 9 -4 14 3 5 -3
13 -12 19 -10 6 -13 11 -6 11 6 0 15 -6 20 -12z m102 -11 c0 -9 -2 -8 -6 1 -2
6 -10 9 -15 6 -7 -4 -8 -2 -4 5 9 13 26 5 25 -12z m-607 6 c-6 -2 -10 -9 -7
-13 3 -5 1 -11 -4 -14 -7 -5 -8 11 -2 32 1 1 7 2 14 1 9 0 9 -2 -1 -6z m472
-23 c-6 -6 -10 -3 -10 10 0 13 4 16 10 10 7 -7 7 -13 0 -20z m167 13 c13 -16
12 -17 -3 -4 -10 7 -18 15 -18 17 0 8 8 3 21 -13z m676 2 c0 -8 -4 -12 -9 -9
-5 3 -6 10 -3 15 9 13 12 11 12 -6z m-1422 -5 c-3 -5 -1 -10 6 -10 7 0 10 -3
6 -6 -9 -9 -28 6 -22 17 4 5 8 9 11 9 3 0 2 -4 -1 -10z m665 -2 c0 -4 -4 -8
-9 -8 -6 0 -12 4 -15 8 -3 5 1 9 9 9 8 0 15 -4 15 -9z m242 5 c-6 -2 -9 -10
-6 -15 4 -7 2 -8 -5 -4 -13 9 -5 26 12 25 9 0 8 -2 -1 -6z m34 -17 c1 -7 -4
-13 -12 -13 -9 0 -11 4 -4 12 5 7 8 15 5 18 -3 4 -2 5 2 2 4 -3 8 -11 9 -19z
m100 -1 c1 -9 -4 -11 -14 -7 -10 4 -12 7 -4 10 7 2 9 9 5 15 -3 7 -2 8 2 4 5
-4 10 -14 11 -22z m40 16 c-4 -5 -1 -11 5 -13 7 -2 6 -8 -3 -16 -12 -10 -14
-8 -12 11 3 27 3 27 10 27 3 0 3 -4 0 -9z m-1130 -16 c-12 -9 -13 -15 -3 -25
10 -12 9 -12 -5 -1 -9 7 -21 10 -26 7 -5 -3 -9 1 -9 8 0 8 7 12 15 8 9 -3 13
-1 9 4 -3 5 3 10 14 10 18 0 18 -2 5 -11z m571 0 c0 -8 -4 -12 -9 -9 -5 3 -6
10 -3 15 9 13 12 11 12 -6z m-632 -5 c3 -6 -1 -7 -9 -4 -18 7 -21 14 -7 14 6
0 13 -4 16 -10z m260 0 c3 -6 -1 -7 -9 -4 -18 7 -21 14 -7 14 6 0 13 -4 16
-10z m579 2 c3 -5 -1 -9 -9 -9 -8 0 -12 4 -9 9 3 4 7 8 9 8 2 0 6 -4 9 -8z
m106 4 c0 -2 -8 -10 -17 -17 -16 -13 -17 -12 -4 4 13 16 21 21 21 13z m39 -10
c9 -11 9 -16 -1 -22 -7 -4 -10 -4 -6 1 4 4 3 14 -3 22 -6 7 -9 13 -6 13 2 0
10 -6 16 -14z m331 10 c0 -2 -7 -7 -16 -10 -8 -3 -12 -2 -9 4 6 10 25 14 25 6z
m-1225 -16 c3 -5 1 -10 -4 -10 -6 0 -11 5 -11 10 0 6 2 10 4 10 3 0 8 -4 11
-10z m1160 0 c-3 -5 -12 -10 -18 -10 -7 0 -6 4 3 10 19 12 23 12 15 0z m88 -4
c4 -10 1 -13 -8 -9 -8 3 -12 9 -9 14 7 12 11 11 17 -5z m-1468 -5 c3 -6 -5
-15 -17 -21 -21 -10 -21 -10 -6 3 10 8 15 17 11 20 -3 4 -4 7 0 7 3 0 8 -4 12
-9z m585 5 c0 -2 -7 -7 -16 -10 -8 -3 -12 -2 -9 4 6 10 25 14 25 6z m599 -19
c8 -10 7 -14 -2 -14 -8 0 -14 6 -14 14 0 7 1 13 2 13 2 0 8 -6 14 -13z m260 0
c8 -10 7 -14 -2 -14 -8 0 -14 6 -14 14 0 7 1 13 2 13 2 0 8 -6 14 -13z m58 -2
c0 -8 -4 -15 -9 -15 -10 0 -11 14 -1 23 9 10 10 9 10 -8z m-1403 -4 c3 -5 -2
-15 -12 -22 -15 -12 -16 -12 -5 2 7 9 10 19 6 22 -3 4 -4 7 0 7 3 0 8 -4 11
-9z m78 -2 c2 -2 1 -3 -1 -2 -2 2 -9 -2 -16 -7 -8 -7 -12 -5 -12 4 0 12 22 16
29 5z m1057 -3 c9 -11 9 -16 -1 -22 -7 -4 -10 -4 -6 1 4 4 3 14 -3 22 -6 7 -9
13 -6 13 2 0 10 -6 16 -14z m168 -3 c0 -8 -4 -10 -12 -3 -7 5 -16 6 -20 2 -5
-4 -5 -2 -2 4 9 15 34 13 34 -3z m163 13 c0 -2 -7 -7 -16 -10 -8 -3 -12 -2 -9
4 6 10 25 14 25 6z m35 -14 c-3 -3 -11 0 -18 7 -9 10 -8 11 6 5 10 -3 15 -9
12 -12z m-1660 -12 c3 -5 1 -10 -4 -10 -6 0 -11 5 -11 10 0 6 2 10 4 10 3 0 8
-4 11 -10z m82 -12 c2 -18 0 -20 -7 -8 -12 18 -13 30 -2 30 4 0 9 -10 9 -22z
m299 7 c-1 -8 -5 -17 -8 -21 -5 -4 -4 16 1 34 3 9 9 -1 7 -13z m964 11 c0 -3
-4 -8 -10 -11 -5 -3 -10 -1 -10 4 0 6 5 11 10 11 6 0 10 -2 10 -4z m293 -22
c-7 -19 -10 -18 -16 5 -3 13 -1 18 9 14 7 -2 10 -11 7 -19z m-92 -1 c13 -16
12 -17 -3 -4 -17 13 -22 21 -14 21 2 0 10 -8 17 -17z m-1566 -3 c3 -5 1 -10
-4 -10 -6 0 -11 5 -11 10 0 6 2 10 4 10 3 0 8 -4 11 -10z m279 1 c-8 -8 -34
-10 -38 -2 -3 4 6 7 19 7 14 0 22 -2 19 -5z m1001 -1 c3 -5 1 -10 -4 -10 -6 0
-11 5 -11 10 0 6 2 10 4 10 3 0 8 -4 11 -10z m200 0 c3 -5 1 -10 -4 -10 -6 0
-11 5 -11 10 0 6 2 10 4 10 3 0 8 -4 11 -10z m245 0 c0 -5 -2 -10 -4 -10 -3 0
-8 5 -11 10 -3 6 -1 10 4 10 6 0 11 -4 11 -10z m-22 -18 c2 -7 -1 -12 -8 -12
-6 0 -8 5 -4 12 5 8 2 9 -10 5 -11 -4 -15 -3 -11 4 8 12 27 7 33 -9z m-1522
-26 c3 -18 -23 -29 -32 -14 -4 6 -3 8 3 5 14 -9 24 17 12 32 -6 8 -5 8 3 1 6
-5 13 -16 14 -24z m141 19 c0 -8 -4 -12 -9 -9 -5 3 -6 10 -3 15 9 13 12 11 12
-6z m94 -8 c-10 -9 -11 -8 -5 6 3 10 9 15 12 12 3 -3 0 -11 -7 -18z m989 13
c0 -5 -5 -10 -11 -10 -5 0 -7 5 -4 10 3 6 8 10 11 10 2 0 4 -4 4 -10z m-1380
-9 c0 -6 -4 -12 -8 -15 -5 -3 -9 1 -9 9 0 8 4 15 9 15 4 0 8 -4 8 -9z m1638
-22 c-3 -8 -7 -3 -11 10 -4 17 -3 21 5 13 5 -5 8 -16 6 -23z m62 16 c0 -8 -4
-15 -10 -15 -5 0 -7 7 -4 15 4 8 8 15 10 15 2 0 4 -7 4 -15z m-1648 -27 c-6
-6 -12 -6 -17 3 -5 8 -4 10 3 5 7 -4 12 0 13 11 0 12 2 13 6 5 3 -8 1 -18 -5
-24z m148 -4 c-6 -6 -6 -15 -2 -19 4 -5 2 -5 -5 -2 -6 4 -13 2 -15 -5 -3 -7
-7 -5 -11 6 -5 11 -3 15 5 10 7 -5 9 -2 6 7 -4 10 1 15 13 15 12 0 15 -4 9
-12z m204 8 c3 -5 -1 -9 -9 -9 -8 0 -12 4 -9 9 3 4 7 8 9 8 2 0 6 -4 9 -8z
m690 0 c2 -4 -5 -9 -17 -9 -17 -2 -19 0 -7 7 18 12 18 12 24 2z m103 1 c-4 -3
1 -16 10 -27 14 -15 14 -18 2 -8 -9 6 -18 9 -22 6 -3 -3 -4 2 -2 13 5 24 4 23
12 23 3 0 3 -3 0 -7z m123 -1 c0 -5 -7 -9 -15 -9 -8 0 -12 4 -9 9 3 4 9 8 15
8 5 0 9 -4 9 -8z m125 -2 c-3 -5 -14 -10 -23 -9 -14 0 -13 2 3 9 27 11 27 11
20 0z m-869 -20 c0 -12 -4 -16 -9 -11 -5 5 -6 14 -3 20 10 15 12 14 12 -9z
m809 -8 c-8 -2 -12 -9 -9 -15 4 -7 3 -9 -1 -4 -5 4 -9 16 -10 26 -1 16 1 17
17 7 16 -9 16 -12 3 -14z m-1071 2 c3 -8 2 -12 -4 -9 -6 3 -10 10 -10 16 0 14
7 11 14 -7z m36 10 c0 -8 -19 -13 -24 -6 -3 5 1 9 9 9 8 0 15 -2 15 -3z m174
-6 c-4 -5 -9 -7 -12 -4 -3 3 -12 0 -21 -7 -14 -10 -14 -10 -4 4 13 16 46 23
37 7z m442 0 c3 -4 -1 -5 -10 -4 -8 1 -18 5 -22 8 -3 4 1 5 10 4 8 -1 18 -5
22 -8z m-754 -30 c-7 -7 -12 -8 -12 -2 0 14 12 26 19 19 2 -3 -1 -11 -7 -17z
m65 7 c-4 -8 -2 -17 3 -20 6 -4 10 2 10 11 0 10 3 15 6 11 4 -3 3 -14 -1 -24
-5 -10 -7 -22 -6 -27 1 -5 -4 -4 -12 2 -9 8 -17 8 -24 1 -8 -8 -13 -8 -17 0
-4 6 0 11 10 11 10 0 14 3 11 6 -3 4 -2 15 4 25 12 22 24 25 16 4z m363 0
c-10 -12 -10 -15 0 -15 8 0 11 -3 7 -6 -3 -3 -11 -3 -17 1 -8 5 -8 11 1 21 6
8 14 14 16 14 3 0 0 -7 -7 -15z m842 -24 c2 -8 -8 -15 -22 -17 -24 -4 -24 -4
-5 10 11 8 17 18 12 22 -4 4 -7 2 -7 -4 0 -7 -5 -12 -10 -12 -6 0 -5 8 2 20
13 20 22 14 30 -19z m-1238 14 c-4 -8 -11 -15 -16 -15 -6 0 -5 6 2 15 7 8 14
15 16 15 2 0 1 -7 -2 -15z m106 -15 c-6 -4 -11 -10 -11 -14 4 -26 -2 -27 -15
-3 -9 16 -13 31 -10 35 3 3 6 0 6 -6 0 -7 5 -12 11 -12 5 0 7 5 3 12 -4 7 -3
8 4 4 7 -4 12 -1 13 6 0 10 2 10 6 -1 3 -7 0 -17 -7 -21z m45 11 c-3 -6 -11
-11 -16 -11 -5 0 -4 6 3 14 14 16 24 13 13 -3z m140 -2 c-4 -5 -12 -9 -18 -8
-9 0 -8 2 1 6 6 2 9 10 6 15 -4 7 -2 8 5 4 6 -4 9 -12 6 -17z m615 6 c0 -12
-19 -12 -23 0 -4 9 -1 12 9 8 7 -3 14 -7 14 -8z m-445 -13 c-3 -3 -11 0 -18 7
-9 10 -8 11 6 5 10 -3 15 -9 12 -12z m128 3 c-3 -9 -8 -14 -10 -11 -3 3 -2 9
2 15 9 16 15 13 8 -4z m85 -10 c-3 -3 -9 2 -12 12 -6 14 -5 15 5 6 7 -7 10
-15 7 -18z m57 15 c-3 -5 -12 -10 -18 -10 -7 0 -6 4 3 10 19 12 23 12 15 0z
m-45 -46 c0 0 -9 0 -20 1 -24 2 -34 11 -26 24 4 6 14 4 26 -7 11 -9 20 -17 20
-18z m31 18 c8 2 18 8 22 13 6 6 10 6 14 -3 2 -6 9 -10 14 -7 5 4 6 -2 2 -11
-4 -11 -8 -13 -11 -6 -4 13 -23 17 -21 5 3 -20 -2 -24 -16 -13 -8 7 -15 9 -15
4 0 -12 -20 19 -20 31 0 6 4 4 9 -3 4 -7 14 -12 22 -10z"/>
<path d="M1831 466 c-10 -11 -9 -14 1 -12 14 2 23 15 15 22 -2 2 -10 -2 -16
-10z"/>
<path d="M2954 448 c-3 -5 -2 -8 3 -7 4 1 17 -2 27 -6 13 -6 21 -4 24 3 2 7 9
9 15 5 16 -10 41 -13 32 -5 -4 4 -11 8 -16 8 -5 1 -10 2 -11 4 -9 6 -70 5 -74
-2z"/>
<path d="M2071 514 c0 -11 3 -14 6 -6 3 7 2 16 -1 19 -3 4 -6 -2 -5 -13z"/>
<path d="M2164 513 c2 -13 0 -23 -6 -23 -5 0 -6 -5 -2 -12 4 -7 3 -8 -4 -4 -6
4 -8 14 -5 23 4 11 3 14 -5 9 -17 -10 -15 -33 3 -40 20 -7 35 24 24 49 -9 18
-9 18 -5 -2z"/>
<path d="M2234 519 c-4 -7 -3 -9 4 -5 5 3 13 0 15 -6 4 -9 6 -10 6 -1 1 17
-16 25 -25 12z"/>
<path d="M2377 519 c7 -7 15 -10 18 -7 3 3 -2 9 -12 12 -14 6 -15 5 -6 -5z"/>
<path d="M2555 519 c-4 -6 -4 -13 -1 -16 3 -3 0 -13 -7 -22 -11 -14 -10 -14 6
-2 9 7 17 9 17 4 0 -5 10 -9 23 -10 l22 -2 -23 13 c-18 10 -20 14 -10 26 11
11 9 11 -6 0 -18 -14 -19 -13 -13 3 7 19 2 23 -8 6z"/>
<path d="M2627 519 c7 -7 15 -10 18 -7 3 3 -2 9 -12 12 -14 6 -15 5 -6 -5z"/>
<path d="M2015 510 c-3 -6 1 -7 9 -4 18 7 21 14 7 14 -6 0 -13 -4 -16 -10z"/>
<path d="M1686 498 c3 -5 10 -6 15 -3 13 9 11 12 -6 12 -8 0 -12 -4 -9 -9z"/>
<path d="M1777 499 c7 -7 15 -10 18 -7 3 3 -2 9 -12 12 -14 6 -15 5 -6 -5z"/>
<path d="M2651 491 c-7 -11 -9 -22 -6 -22 20 -5 31 -4 42 3 14 11 27 -7 17
-24 -4 -7 2 -5 14 6 12 10 19 23 16 27 -3 5 0 9 5 9 6 0 11 -6 11 -12 0 -10 3
-9 9 1 6 9 10 10 14 2 4 -8 5 -8 3 0 -3 17 -41 24 -81 16 -11 -2 -23 0 -26 6
-4 5 -12 0 -18 -12z m76 -6 c0 -17 -13 -20 -21 -6 -4 5 0 12 6 14 7 3 13 6 14
6 0 1 1 -6 1 -14z m-42 -4 c-9 -8 -36 -10 -30 -2 2 4 11 8 20 8 8 0 13 -3 10
-6z"/>
<path d="M2950 505 c0 -7 30 -13 34 -7 3 4 -4 9 -15 9 -10 1 -19 0 -19 -2z"/>
<path d="M3033 495 c0 -8 4 -12 9 -9 5 3 6 10 3 15 -9 13 -12 11 -12 -6z"/>
<path d="M3068 493 c7 -3 16 -2 19 1 4 3 -2 6 -13 5 -11 0 -14 -3 -6 -6z"/>
<path d="M1453 478 c3 -9 1 -19 -6 -22 -9 -3 -9 -5 0 -5 18 -1 23 13 11 29 -8
12 -9 12 -5 -2z"/>
<path d="M1515 480 c-3 -5 -1 -10 4 -10 6 0 11 5 11 10 0 6 -2 10 -4 10 -3 0
-8 -4 -11 -10z"/>
<path d="M1587 479 c7 -7 15 -10 18 -7 3 3 -2 9 -12 12 -14 6 -15 5 -6 -5z"/>
<path d="M1325 460 c-3 -6 1 -7 9 -4 18 7 21 14 7 14 -6 0 -13 -4 -16 -10z"/>
<path d="M3295 460 c3 -5 8 -10 11 -10 2 0 4 5 4 10 0 6 -5 10 -11 10 -5 0 -7
-4 -4 -10z"/>
<path d="M3316 448 c-12 -16 -18 -19 -22 -10 -3 6 -10 12 -15 12 -6 0 -8 -4
-5 -8 2 -4 1 -14 -4 -22 -14 -23 8 -42 34 -28 20 11 20 10 6 -7 -10 -13 -11
-16 -2 -11 8 5 22 1 34 -11 12 -10 18 -13 15 -6 -5 7 -1 10 10 8 11 -1 17 -10
15 -21 -2 -18 -2 -18 8 -1 6 9 9 21 6 25 -3 5 1 9 9 9 11 0 12 -5 3 -20 -8
-15 -7 -18 4 -12 7 3 5 0 -4 -8 -10 -8 -15 -17 -11 -20 3 -4 12 1 20 11 8 9
12 12 8 5 -4 -8 2 -11 16 -8 12 2 19 2 16 -2 -4 -3 3 -17 13 -31 27 -34 26
-38 -18 -38 -26 0 -39 4 -39 13 0 8 9 11 29 8 32 -6 37 6 11 26 -17 13 -17 13
-3 -6 14 -19 14 -19 -4 -5 -16 12 -18 12 -11 1 5 -10 4 -12 -4 -7 -6 4 -8 12
-5 18 4 6 1 9 -7 6 -8 -3 -14 -11 -14 -19 0 -8 -4 -14 -10 -14 -5 0 -16 -4
-22 -8 -7 -5 -18 -5 -25 -1 -7 5 -8 3 -3 -6 5 -9 4 -11 -3 -6 -8 5 -10 1 -6
-11 3 -11 2 -14 -3 -8 -10 13 -22 13 -51 -4 -22 -12 -23 -11 -13 8 10 17 9 20
-4 15 -9 -4 -13 -9 -10 -12 3 -3 -1 -15 -9 -27 -10 -15 -11 -26 -4 -36 8 -11
9 -11 4 3 -3 10 -1 20 4 23 6 4 10 1 10 -4 0 -6 4 -11 10 -11 5 0 7 7 4 15 -4
8 -1 15 5 15 11 0 15 -15 11 -35 -1 -5 2 -6 7 -2 4 5 9 13 9 18 1 5 2 14 3 19
0 6 6 10 12 10 6 0 8 -7 5 -16 -3 -8 -2 -12 4 -9 6 3 10 1 10 -6 0 -7 9 -2 20
11 11 13 20 28 20 34 0 6 9 -2 20 -19 11 -16 20 -25 20 -18 0 6 -4 15 -10 18
-5 3 -10 11 -10 17 0 6 6 6 15 -2 12 -10 22 -10 39 -2 17 8 27 7 36 -1 10 -9
11 -9 6 0 -8 14 31 43 49 37 24 -10 27 17 3 36 -13 11 -18 19 -11 20 6 0 15
-5 18 -10 4 -7 14 -6 28 2 12 7 25 11 29 10 4 -1 12 8 18 21 11 21 10 21 -4 3
-9 -11 -16 -16 -16 -12 0 5 -7 3 -15 -4 -12 -10 -18 -10 -30 0 -8 7 -13 16
-10 20 3 5 -1 14 -8 22 -8 7 -12 19 -10 25 3 7 -13 -4 -33 -22 -21 -19 -40
-32 -43 -29 -3 3 6 16 22 28 15 12 27 25 27 30 0 4 -7 0 -16 -8 -16 -16 -39
-22 -30 -8 2 4 -5 14 -17 21 -18 11 -20 11 -9 0 6 -7 12 -18 12 -24 -1 -5 -8
-1 -18 10 -9 11 -26 27 -37 35 -11 8 -7 0 9 -18 17 -18 25 -32 19 -32 -5 0
-18 9 -28 20 -10 11 -23 20 -29 19 -29 -3 -38 2 -33 21 7 26 3 25 -17 -2z m43
-32 c30 -7 59 -32 39 -34 -7 0 -24 -3 -37 -6 -13 -3 -21 -3 -18 1 13 13 -23
33 -50 28 -15 -3 -22 -2 -15 1 6 3 10 9 7 13 -4 8 33 7 74 -3z m96 -47 c-8
-23 10 -33 25 -13 10 12 15 12 21 2 4 -7 3 -16 -3 -19 -7 -4 -13 -15 -14 -24
-2 -12 1 -13 10 -6 7 6 16 8 20 4 4 -4 4 0 0 10 -4 11 -1 17 7 17 12 0 12 2 0
9 -8 5 -11 16 -7 26 5 14 9 15 21 5 9 -7 13 -15 10 -18 -3 -3 3 -15 12 -26 16
-19 16 -19 1 -7 -29 22 -42 2 -17 -25 l23 -24 -22 3 c-12 2 -24 6 -28 9 -3 4
-12 4 -19 2 -13 -5 -29 12 -30 31 -1 6 -6 9 -12 8 -16 -3 -34 22 -28 39 8 22
37 19 30 -3z m55 -89 c0 -5 -5 -10 -11 -10 -5 0 -7 5 -4 10 3 6 8 10 11 10 2
0 4 -4 4 -10z m-106 -19 c-3 -3 -9 -6 -14 -6 -4 0 -17 -11 -29 -25 -11 -14
-20 -20 -21 -13 0 16 37 50 55 50 8 0 12 -3 9 -6z"/>
<path d="M3351 394 c6 -7 16 -11 21 -8 11 7 3 17 -18 20 -12 2 -13 -1 -3 -12z"/>
<path d="M3430 361 c0 -6 4 -13 10 -16 6 -3 7 1 4 9 -7 18 -14 21 -14 7z"/>
<path d="M3459 468 c-5 -18 -6 -38 -1 -34 7 8 12 36 6 36 -2 0 -4 -1 -5 -2z"/>
<path d="M1233 448 c-15 -20 -25 -38 -20 -38 3 0 12 11 21 25 17 26 16 35 -1
13z"/>
<path d="M1272 447 c-8 -10 -6 -13 11 -14 12 0 16 1 9 4 -6 3 -10 9 -6 14 8
14 -2 11 -14 -4z"/>
<path d="M1370 449 c0 -5 -6 -7 -12 -3 -10 6 -10 4 0 -8 9 -11 10 -18 2 -23
-5 -3 -10 -1 -10 5 0 6 -4 8 -10 5 -5 -3 -10 -11 -10 -17 0 -6 3 -8 7 -5 11
12 42 -24 35 -41 -5 -15 -4 -15 11 -3 9 7 14 18 10 24 -4 6 -1 7 7 2 8 -5 11
-4 7 2 -3 5 0 10 7 10 8 0 12 -6 9 -12 -5 -14 26 -49 35 -41 3 3 -3 16 -14 28
-10 12 -14 18 -8 15 7 -4 17 0 23 7 10 11 8 16 -10 21 -17 6 -19 9 -8 17 11 7
9 8 -5 4 -10 -4 -25 -1 -32 5 -10 8 -14 8 -14 0 0 -6 -4 -11 -10 -11 -5 0 -7
7 -4 15 4 8 3 15 0 15 -3 0 -6 -5 -6 -11z m60 -34 c21 -12 22 -14 5 -12 -11 1
-26 7 -34 11 -9 6 -12 5 -7 -2 8 -14 -10 -25 -26 -16 -7 5 -5 11 7 21 23 16
24 16 55 -2z"/>
<path d="M3350 450 c0 -5 5 -10 11 -10 5 0 7 5 4 10 -3 6 -8 10 -11 10 -2 0
-4 -4 -4 -10z"/>
<path d="M1106 438 c3 -5 10 -6 15 -3 13 9 11 12 -6 12 -8 0 -12 -4 -9 -9z"/>
<path d="M1186 442 c-3 -5 1 -9 9 -9 8 0 15 4 15 9 0 4 -4 8 -9 8 -6 0 -12 -4
-15 -8z"/>
<path d="M3481 436 c-8 -10 -9 -16 -1 -21 6 -4 9 -1 8 7 -2 7 3 12 10 10 8 -1
11 2 7 8 -8 13 -10 13 -24 -4z"/>
<path d="M1311 423 c-5 -10 -10 -22 -11 -28 -5 -26 -15 -10 -11 17 0 4 -7 4
-16 1 -11 -4 -13 -8 -5 -11 7 -2 12 -8 12 -13 0 -6 -5 -7 -10 -4 -6 4 -17 1
-25 -5 -18 -15 -20 1 -3 18 9 9 9 12 0 12 -11 0 -14 -6 -16 -39 -1 -8 -8 -16
-16 -19 -8 -3 -12 -1 -8 3 4 4 1 14 -7 21 -17 17 -29 18 -18 2 4 -7 8 -22 8
-33 0 -15 6 -19 23 -18 19 2 21 1 10 -17 -9 -14 -14 -16 -20 -7 -4 7 -8 7 -8
1 0 -5 5 -15 12 -22 9 -9 9 -12 1 -12 -19 0 -35 39 -35 85 0 11 -2 14 -5 8 -3
-7 -9 -13 -14 -13 -6 0 -7 5 -4 10 3 6 1 10 -4 10 -17 0 -13 -14 9 -33 12 -10
18 -23 14 -29 -5 -8 -10 -5 -16 8 -8 18 -8 18 -5 -1 2 -11 8 -19 14 -18 5 1
16 -9 23 -22 14 -25 30 -33 30 -15 0 21 2 25 16 33 17 10 52 -7 35 -17 -6 -4
-11 -2 -11 3 0 6 -5 11 -11 11 -5 0 -8 -4 -5 -9 3 -4 -1 -17 -9 -27 -8 -10
-14 -23 -14 -29 0 -5 4 -2 10 8 7 13 14 15 23 8 13 -11 34 -10 54 2 15 10 16
-5 0 -21 -9 -9 -9 -12 0 -12 7 0 12 5 12 11 0 5 5 7 10 4 6 -4 9 -1 8 6 -2 6
3 14 11 17 8 2 11 0 8 -5 -8 -12 10 -39 20 -30 4 5 2 11 -4 15 -9 6 -7 11 6
19 14 9 18 8 18 -3 0 -7 -5 -10 -11 -7 -6 3 -5 0 1 -7 9 -10 10 -17 2 -27 -7
-7 -7 -13 -3 -13 5 0 15 9 22 20 7 12 17 18 23 14 8 -4 8 -8 1 -13 -7 -4 -8
-12 -2 -21 8 -13 10 -12 10 3 0 23 16 21 34 -5 9 -12 17 -20 20 -17 2 2 -10
20 -26 39 -17 19 -27 29 -23 21 6 -10 4 -12 -4 -7 -8 6 -9 12 -2 20 6 7 7 17
3 22 -4 4 1 2 11 -5 19 -15 24 -2 6 16 -9 9 -15 8 -26 -2 -37 -38 -55 34 -19
74 11 12 14 21 8 21 -17 0 -48 -52 -46 -77 0 -12 -5 -24 -13 -27 -10 -4 -11
-1 -3 14 16 29 11 38 -6 10 l-15 -25 6 25 c4 14 3 21 -2 15 -4 -5 -15 -11 -23
-13 -12 -2 -11 1 2 11 10 8 15 17 11 20 -3 4 -12 -2 -20 -13 -17 -24 -38 -27
-29 -4 4 10 2 13 -7 8 -7 -4 -9 -3 -4 2 5 5 13 10 18 10 5 1 14 2 20 3 5 0 7
6 4 11 -4 7 -12 7 -25 0 -15 -8 -18 -6 -16 8 2 9 -2 21 -8 25 -7 6 -6 7 4 4 8
-2 14 -10 13 -16 -2 -6 2 -11 8 -11 6 0 8 8 5 18 -5 14 -4 14 9 -2 8 -11 15
-14 15 -7 0 7 7 10 18 7 23 -8 50 9 28 17 -9 4 -23 4 -31 1 -10 -4 -13 0 -10
15 2 12 7 26 10 31 3 6 4 10 1 10 -3 0 -10 -8 -15 -17z m-56 -90 c2 -22 -2
-29 -16 -29 -13 0 -15 4 -8 12 7 8 6 14 -1 19 -8 5 -8 11 1 21 15 18 21 12 24
-23z m-50 7 c3 -5 1 -10 -4 -10 -6 0 -11 5 -11 10 0 6 2 10 4 10 3 0 8 -4 11
-10z m91 -59 c-3 -5 1 -11 9 -14 10 -4 12 -1 9 11 -5 14 -4 15 5 2 15 -21 14
-33 -4 -27 -8 4 -17 2 -19 -2 -8 -13 -49 -7 -52 7 -1 7 0 8 2 3 3 -5 14 -1 25
10 20 20 34 26 25 10z m79 -21 c-3 -5 -12 -10 -18 -10 -7 0 -6 4 3 10 19 12
23 12 15 0z m35 -20 c-12 -22 -21 -26 -17 -7 2 10 17 26 25 27 1 0 -2 -9 -8
-20z"/>
<path d="M3576 427 c3 -10 9 -15 12 -12 3 3 0 11 -7 18 -10 9 -11 8 -5 -6z"/>
<path d="M1496 422 c-3 -5 1 -9 9 -9 8 0 12 4 9 9 -3 4 -7 8 -9 8 -2 0 -6 -4
-9 -8z"/>
<path d="M1170 418 c0 -2 9 -11 20 -21 11 -9 20 -13 20 -7 0 5 -9 14 -20 20
-11 6 -20 9 -20 8z"/>
<path d="M1546 408 c3 -5 10 -6 15 -3 13 9 11 12 -6 12 -8 0 -12 -4 -9 -9z"/>
<path d="M3556 407 c3 -10 9 -15 12 -12 3 3 0 11 -7 18 -10 9 -11 8 -5 -6z"/>
<path d="M1079 408 c-6 -20 -6 -39 0 -42 4 -3 7 6 7 20 0 20 -4 32 -7 22z"/>
<path d="M1103 397 c-3 -6 -1 -7 5 -3 5 3 12 1 14 -6 3 -8 6 -7 10 3 7 17 -19
22 -29 6z"/>
<path d="M3194 395 c-18 -15 -18 -15 5 -13 14 2 26 9 29 16 5 17 -10 15 -34
-3z"/>
<path d="M3610 400 c-11 -7 -11 -10 -2 -10 8 0 10 -5 6 -12 -4 -7 -3 -9 1 -5
7 6 17 37 12 37 -1 0 -9 -5 -17 -10z"/>
<path d="M3575 379 c-5 -8 -4 -10 3 -5 7 4 12 3 12 -3 0 -5 -6 -12 -12 -14
-10 -4 -10 -6 -1 -6 17 -1 27 19 15 31 -6 6 -12 6 -17 -3z"/>
<path d="M3657 365 c3 -8 9 -12 14 -9 12 7 11 11 -5 17 -10 4 -13 1 -9 -8z"/>
<path d="M1056 357 c3 -10 9 -15 12 -12 3 3 0 11 -7 18 -10 9 -11 8 -5 -6z"/>
<path d="M896 347 c3 -10 9 -15 12 -12 3 3 0 11 -7 18 -10 9 -11 8 -5 -6z"/>
<path d="M1315 350 c-3 -4 4 -15 14 -24 16 -15 19 -15 31 -1 7 9 10 18 6 22
-9 9 -46 11 -51 3z m35 -14 c-7 -7 -13 -7 -20 0 -6 6 -3 10 10 10 13 0 16 -4
10 -10z"/>
<path d="M3357 342 c-19 -20 -23 -37 -7 -27 5 3 18 1 27 -5 15 -9 14 -10 -7
-5 -17 4 -21 3 -11 -3 11 -8 11 -10 0 -14 -8 -3 -10 -9 -6 -14 4 -5 12 -2 16
5 5 7 13 11 19 7 14 -8 9 18 -7 38 -7 8 -10 20 -6 26 10 16 0 12 -18 -8z"/>
<path d="M1068 328 c-10 -10 -14 -18 -9 -18 10 0 36 29 30 34 -2 1 -12 -6 -21
-16z"/>
<path d="M3266 279 c-36 -40 -69 -69 -73 -65 -3 3 -1 6 6 6 7 0 9 5 5 12 -5 7
-2 8 7 3 12 -7 12 -5 1 6 -8 9 -15 10 -20 3 -4 -5 -18 -10 -31 -9 -13 0 -26
-5 -28 -12 -2 -6 4 -10 14 -8 10 1 26 -2 36 -7 21 -11 72 16 62 32 -3 5 3 14
14 19 27 15 34 14 27 -5 -3 -9 -2 -12 5 -9 6 4 8 12 6 19 -3 6 1 20 8 29 12
16 13 16 19 1 4 -9 4 -19 1 -22 -3 -3 -5 0 -5 7 0 7 -4 10 -10 6 -5 -3 -6 -13
-3 -22 5 -14 9 -13 25 7 15 18 16 25 6 31 -11 7 -11 12 0 29 25 41 -7 18 -72
-51z"/>
<path d="M3678 325 c-6 -13 -16 -22 -22 -18 -6 3 -7 2 -3 -2 15 -17 36 -14 29
3 -5 14 -3 15 9 5 13 -10 16 -10 16 2 0 8 -5 11 -10 8 -6 -4 -8 0 -4 10 10 26
-2 20 -15 -8z"/>
<path d="M1104 325 c-10 -8 -14 -15 -9 -16 6 0 -1 -5 -15 -10 l-25 -8 25 2
c14 1 24 8 23 15 -2 6 4 12 12 12 8 0 15 5 15 10 0 13 -3 13 -26 -5z"/>
<path d="M3627 310 c-3 -11 -3 -20 -1 -20 2 0 8 9 14 20 6 11 7 20 2 20 -6 0
-12 -9 -15 -20z"/>
<path d="M3590 310 c-8 -5 -12 -11 -9 -14 2 -3 11 -1 19 4 8 5 12 11 9 14 -2
3 -11 1 -19 -4z"/>
<path d="M893 295 c0 -8 4 -12 9 -9 5 3 6 10 3 15 -9 13 -12 11 -12 -6z"/>
<path d="M1000 295 c-11 -13 -11 -18 0 -28 10 -9 11 -9 6 1 -4 7 -2 19 4 27 7
8 10 15 7 15 -2 0 -10 -7 -17 -15z"/>
<path d="M3816 298 c3 -5 10 -6 15 -3 13 9 11 12 -6 12 -8 0 -12 -4 -9 -9z"/>
<path d="M3737 290 c7 -8 20 -15 29 -16 9 -1 13 1 9 4 -4 4 -10 7 -13 7 -4 0
-14 4 -22 9 -12 7 -13 6 -3 -4z"/>
<path d="M960 280 c-9 -6 -10 -10 -3 -10 6 0 15 5 18 10 8 12 4 12 -15 0z"/>
<path d="M1123 281 c10 -4 18 -10 18 -14 -1 -4 1 -7 4 -7 3 0 10 0 17 0 6 0 3
7 -8 15 -10 8 -26 14 -34 14 -11 0 -10 -3 3 -8z"/>
<path d="M3597 283 c-4 -3 -7 -11 -7 -17 0 -6 5 -5 12 2 6 6 9 14 7 17 -3 3
-9 2 -12 -2z"/>
<path d="M3615 259 c-4 -5 2 -6 11 -2 12 4 15 3 10 -5 -10 -16 -1 -15 12 1 8
10 6 13 -8 14 -11 1 -22 -2 -25 -8z"/>
<path d="M1465 250 c-4 -6 -12 -7 -18 -4 -7 3 2 -8 20 -25 18 -17 34 -31 37
-31 8 0 0 28 -12 42 -6 8 -9 18 -5 21 3 4 1 7 -5 7 -6 0 -14 -5 -17 -10z m35
-36 c0 -2 -9 0 -20 6 -11 6 -20 13 -20 16 0 2 9 0 20 -6 11 -6 20 -13 20 -16z"/>
<path d="M3524 252 c-8 -5 -7 -11 4 -22 14 -13 15 -12 9 2 -3 9 -1 19 6 22 7
2 8 5 2 5 -5 0 -15 -3 -21 -7z"/>
<path d="M1160 246 c0 -2 7 -9 15 -16 13 -11 14 -10 9 4 -5 14 -24 23 -24 12z"/>
<path d="M3555 240 c-3 -5 -1 -10 4 -10 6 0 11 5 11 10 0 6 -2 10 -4 10 -3 0
-8 -4 -11 -10z"/>
<path d="M1095 220 c3 -5 8 -10 11 -10 2 0 4 5 4 10 0 6 -5 10 -11 10 -5 0 -7
-4 -4 -10z"/>
<path d="M1233 215 c0 -8 4 -12 9 -9 5 3 6 10 3 15 -9 13 -12 11 -12 -6z"/>
<path d="M3459 228 c-6 -21 -5 -37 2 -32 5 3 7 9 4 14 -3 4 1 11 7 13 10 4 10
6 1 6 -7 1 -13 0 -14 -1z"/>
<path d="M1261 197 c-13 -21 -12 -21 5 -5 10 10 16 20 13 22 -3 3 -11 -5 -18
-17z"/>
<path d="M3377 201 c-3 -13 -1 -18 9 -14 7 2 10 11 7 19 -7 19 -10 18 -16 -5z"/>
<path d="M1315 200 c-3 -5 -2 -10 4 -10 5 0 13 5 16 10 3 6 2 10 -4 10 -5 0
-13 -4 -16 -10z"/>
<path d="M1694 181 c0 -13 6 -17 19 -13 10 2 16 5 15 6 -2 1 -10 7 -18 13 -13
10 -16 8 -16 -6z"/>
<path d="M2726 163 c5 -18 4 -24 -5 -19 -6 4 -11 3 -11 -3 0 -5 8 -9 19 -8 21
1 24 44 3 52 -9 3 -10 -3 -6 -22z"/>
<path d="M3215 183 c3 -3 -2 -11 -11 -17 -13 -10 -13 -12 4 -12 19 0 24 19 9
31 -4 3 -5 2 -2 -2z"/>
<path d="M3327 179 c7 -7 15 -10 18 -7 3 3 -2 9 -12 12 -14 6 -15 5 -6 -5z"/>
<path d="M1500 176 c0 -2 7 -7 16 -10 8 -3 12 -2 9 4 -6 10 -25 14 -25 6z"/>
<path d="M1935 170 c-5 -9 -4 -15 3 -18 7 -2 10 -7 8 -10 -2 -4 9 -7 24 -7 16
-1 26 3 23 8 -3 4 -7 6 -10 3 -3 -3 -13 4 -23 16 -13 17 -19 18 -25 8z"/>
<path d="M2080 164 c8 -8 7 -13 -2 -17 -7 -2 -9 -8 -5 -13 5 -5 13 -1 18 9 6
9 14 17 19 17 12 0 9 -22 -5 -33 -6 -5 -4 -7 5 -4 8 2 15 14 15 27 0 19 -6 24
-27 25 -21 2 -25 -1 -18 -11z"/>
<path d="M2627 159 c3 -10 9 -17 13 -14 5 3 10 1 12 -5 2 -6 9 -1 16 10 7 11
9 20 5 19 -5 -1 -10 0 -13 1 -26 10 -37 6 -33 -11z"/>
<path d="M1580 166 c0 -2 11 -6 25 -8 13 -3 22 -1 19 3 -5 9 -44 13 -44 5z"/>
<path d="M3079 153 c-12 -16 -12 -17 2 -6 9 7 19 10 22 6 4 -3 7 -1 7 5 0 17
-16 15 -31 -5z"/>
<path d="M3135 160 c-3 -5 -1 -10 4 -10 6 0 11 5 11 10 0 6 -2 10 -4 10 -3 0
-8 -4 -11 -10z"/>
<path d="M3296 158 c3 -5 10 -6 15 -3 13 9 11 12 -6 12 -8 0 -12 -4 -9 -9z"/>
<path d="M2170 119 c0 -5 5 -7 10 -4 6 3 10 8 10 11 0 2 -4 4 -10 4 -5 0 -10
-5 -10 -11z"/>
<path d="M2255 120 c3 -5 8 -10 11 -10 2 0 4 5 4 10 0 6 -5 10 -11 10 -5 0 -7
-4 -4 -10z"/>
<path d="M2420 126 c0 -2 7 -7 16 -10 8 -3 12 -2 9 4 -6 10 -25 14 -25 6z"/>
</g>
</svg>
